<svg width="82" height="82" viewBox="0 0 82 82" fill="none" xmlns="http://www.w3.org/2000/svg">
<path d="M80.3823 0.310034C79.5568 -0.10367 78.5844 -0.10367 77.7588 0.310034L1.61846 38.3802C0.172131 39.1042 -0.413506 40.8633 0.310261 42.3096C0.722249 43.1329 1.49749 43.7146 2.40315 43.8798L32.6221 49.3766L38.1188 79.5955C38.3437 80.8342 39.3355 81.7906 40.5816 81.9705C40.7194 81.9904 40.8584 82.0001 40.9974 81.9998C42.1074 82.0003 43.1222 81.3733 43.6184 80.3803L81.6888 4.23996C82.4132 2.79397 81.8283 1.03449 80.3823 0.310034ZM42.3066 69.9022L38.0193 46.3338C37.7976 45.1436 36.8665 44.2126 35.6765 43.991L12.0966 39.692L72.5197 9.47912L42.3066 69.9022Z" fill="#F6F4EF"/>
</svg>
