<svg width="116" height="116" viewBox="0 0 116 116" fill="none" xmlns="http://www.w3.org/2000/svg">
<g clip-path="url(#clip0)">
<path d="M31.4166 91.8333H21.7499C20.4159 91.8333 19.3333 90.7507 19.3333 89.4167C19.3333 88.0827 20.4159 87 21.7499 87H31.4166C32.7506 87 33.8332 88.0827 33.8332 89.4167C33.8332 90.7507 32.7506 91.8333 31.4166 91.8333Z" fill="#F6F4EF"/>
<path d="M109.958 91.8333H103.917C102.583 91.8333 101.5 90.7506 101.5 89.4166C101.5 88.0826 102.583 86.9999 103.917 86.9999H107.952L111.21 69.6386C111.167 60.7549 103.578 53.1666 94.25 53.1666H78.3821L70.6923 86.9999H84.5833C85.9173 86.9999 87 88.0826 87 89.4166C87 90.7506 85.9173 91.8333 84.5833 91.8333H67.6666C66.932 91.8333 66.236 91.4998 65.7768 90.9246C65.3176 90.3543 65.1436 89.6003 65.308 88.8849L74.095 50.2183C74.3463 49.1114 75.3226 48.3333 76.4536 48.3333H94.25C106.241 48.3333 116 58.0918 116 70.0833L112.331 89.8612C112.119 91.0067 111.123 91.8333 109.958 91.8333Z" fill="#F6F4EF"/>
<path d="M94.2498 101.5C87.5895 101.5 82.1665 96.082 82.1665 89.4168C82.1665 82.7517 87.5895 77.3335 94.2498 77.3335C100.91 77.3335 106.333 82.7517 106.333 89.4168C106.333 96.082 100.91 101.5 94.2498 101.5ZM94.2498 82.1668C90.2527 82.1668 86.9998 85.4197 86.9998 89.4168C86.9998 93.414 90.2527 96.6668 94.2498 96.6668C98.247 96.6668 101.5 93.414 101.5 89.4168C101.5 85.4197 98.247 82.1668 94.2498 82.1668Z" fill="#F6F4EF"/>
<path d="M41.0833 101.5C34.423 101.5 29 96.082 29 89.4168C29 82.7517 34.423 77.3335 41.0833 77.3335C47.7437 77.3335 53.1667 82.7517 53.1667 89.4168C53.1667 96.082 47.7437 101.5 41.0833 101.5ZM41.0833 82.1668C37.0862 82.1668 33.8333 85.4197 33.8333 89.4168C33.8333 93.414 37.0862 96.6668 41.0833 96.6668C45.0805 96.6668 48.3333 93.414 48.3333 89.4168C48.3333 85.4197 45.0805 82.1668 41.0833 82.1668Z" fill="#F6F4EF"/>
<path d="M31.4168 48.3333H12.0834C10.7494 48.3333 9.66675 47.2507 9.66675 45.9167C9.66675 44.5827 10.7494 43.5 12.0834 43.5H31.4168C32.7508 43.5 33.8334 44.5827 33.8334 45.9167C33.8334 47.2507 32.7508 48.3333 31.4168 48.3333Z" fill="#F6F4EF"/>
<path d="M31.4166 62.8333H7.24992C5.91592 62.8333 4.83325 61.7507 4.83325 60.4167C4.83325 59.0827 5.91592 58 7.24992 58H31.4166C32.7506 58 33.8333 59.0827 33.8333 60.4167C33.8333 61.7507 32.7506 62.8333 31.4166 62.8333Z" fill="#F6F4EF"/>
<path d="M31.4167 77.3333H2.41667C1.08267 77.3333 0 76.2507 0 74.9167C0 73.5827 1.08267 72.5 2.41667 72.5H31.4167C32.7507 72.5 33.8333 73.5827 33.8333 74.9167C33.8333 76.2507 32.7507 77.3333 31.4167 77.3333Z" fill="#F6F4EF"/>
<path d="M67.6666 91.8333H50.7499C49.4159 91.8333 48.3333 90.7506 48.3333 89.4166C48.3333 88.0826 49.4159 86.9999 50.7499 86.9999H65.7381L76.7194 38.6666H21.7499C20.4159 38.6666 19.3333 37.5839 19.3333 36.2499C19.3333 34.9159 20.4159 33.8333 21.7499 33.8333H79.7499C80.4846 33.8333 81.1806 34.1668 81.6398 34.7419C82.0989 35.3123 82.2729 36.0663 82.1086 36.7816L70.0253 89.9483C69.7739 91.0551 68.7928 91.8333 67.6666 91.8333Z" fill="#F6F4EF"/>
</g>
<defs>
<clipPath id="clip0">
<rect width="116" height="116" fill="white"/>
</clipPath>
</defs>
</svg>
