<svg width="40" height="41" viewBox="0 0 40 41" fill="none" xmlns="http://www.w3.org/2000/svg">
<path d="M36.6667 0.53125H3.33333C1.49333 0.533417 0.00216667 2.02458 0 3.86458V24.5312C0.00216667 26.3713 1.49333 27.8624 3.33333 27.8646H36.6667C38.5067 27.8624 39.9978 26.3713 40 24.5312V3.86458C39.9978 2.02458 38.5067 0.533417 36.6667 0.53125ZM38.6667 24.5312C38.6667 25.6358 37.7713 26.5312 36.6667 26.5312H3.33333C2.22875 26.5312 1.33333 25.6358 1.33333 24.5312V3.86458C1.33333 2.76 2.22875 1.86458 3.33333 1.86458H36.6667C37.7713 1.86458 38.6667 2.76 38.6667 3.86458V24.5312Z" fill="black"/>
<path d="M22.5214 11.8646H27.3334V6.53127C27.3312 4.69127 25.8401 3.2001 24.0001 3.19794H15.3334C13.4934 3.2001 12.0022 4.69127 12.0001 6.53127V9.8646H10.6667C8.82675 9.86677 7.33558 11.3579 7.33342 13.1979V16.5313H6.00008C4.16008 16.5334 2.66891 18.0246 2.66675 19.8646V25.1979H18.0001V19.8646C17.9982 19.4501 17.9183 19.0396 17.7647 18.6546L17.8547 18.5313H22.6667V13.1979C22.6648 12.7834 22.5851 12.3729 22.4314 11.9879L22.5214 11.8646ZM26.0001 10.5313H23.3094L26.0001 6.83127V10.5313ZM21.3581 4.53127L17.4787 9.8646H14.4607L18.3394 4.53127H21.3581ZM13.3334 6.53127C13.3334 5.42669 14.2288 4.53127 15.3334 4.53127H16.6914L13.3334 9.14794V6.53127ZM13.6727 11.1979H16.6914L12.8121 16.5313H9.79408L13.6727 11.1979ZM8.66675 13.1979C8.66675 12.0934 9.56216 11.1979 10.6667 11.1979H12.0247L8.66675 15.8146V13.1979ZM4.00008 19.8646C4.00008 18.76 4.8955 17.8646 6.00008 17.8646H7.35808L4.00008 22.4813V19.8646ZM4.64208 23.8646L9.00608 17.8646H12.0247L7.66075 23.8646H4.64208ZM9.30875 23.8646L13.6727 17.8646H14.6667C15.2497 17.8665 15.8022 18.1244 16.1781 18.5699L12.3274 23.8646H9.30875ZM16.6667 23.8646H13.9754L16.6667 20.1646V23.8646ZM16.9941 17.1979H16.6667V17.2153C16.0932 16.7741 15.3904 16.5337 14.6667 16.5313H14.4607L18.3394 11.1979H19.3334C19.9163 11.1999 20.4689 11.4578 20.8447 11.9033L16.9941 17.1979ZM21.3334 17.1979H18.6421L21.3334 13.4979V17.1979ZM19.3334 9.8646H19.1274L23.0061 4.53127H24.0001C24.5831 4.53335 25.1358 4.79119 25.5121 5.2366H25.5094L21.5334 10.7106C20.9289 10.1679 20.1457 9.86669 19.3334 9.8646Z" fill="black"/>
<path d="M30.9999 22.5313C33.0138 22.5047 34.64 20.8785 34.6666 18.8646C34.6881 16.861 33.0812 15.2194 31.0777 15.1979C31.0517 15.1977 31.0258 15.1977 30.9999 15.1979C28.9748 15.1979 27.3333 16.8395 27.3333 18.8646C27.3333 20.8897 28.9748 22.5313 30.9999 22.5313ZM30.9999 16.5313C32.2745 16.5172 33.3192 17.539 33.3332 18.8137C33.3334 18.8307 33.3334 18.8477 33.3332 18.8646C33.3164 20.1462 32.2815 21.181 30.9999 21.1979C29.7112 21.1979 28.6666 20.1533 28.6666 18.8646C28.6666 17.5759 29.7112 16.5313 30.9999 16.5313Z" fill="black"/>
<path d="M24.6667 18.5313V19.1979C24.6704 22.5101 27.3546 25.1943 30.6667 25.1979H31.3334C34.6456 25.1943 37.3297 22.5101 37.3334 19.1979V12.5139H30.6627C27.3528 12.5377 24.6787 15.2213 24.6667 18.5313ZM36.0001 13.8473V19.1979C35.9967 21.7738 33.9093 23.8613 31.3334 23.8646H30.6667C28.0908 23.8613 26.0034 21.7738 26.0001 19.1979V18.5313C26.0095 15.955 28.0906 13.8663 30.6667 13.8473H36.0001Z" fill="black"/>
<path d="M4.48538 8.45791L4.68538 8.59125C5.35671 9.0405 6.23271 9.0405 6.90405 8.59125L7.10405 8.45791C7.99196 7.86566 8.25846 6.68058 7.70938 5.76525C7.68996 5.73308 7.66763 5.70275 7.64271 5.67458L6.30471 4.09858C6.06563 3.81858 5.6448 3.78541 5.3648 4.0245C5.33821 4.04725 5.31338 4.072 5.29071 4.09858L3.94405 5.67458C3.91938 5.70291 3.89705 5.73325 3.87738 5.76525C3.32888 6.68125 3.59647 7.8665 4.48538 8.45791ZM5.00005 6.49058L5.80005 5.55725L6.60005 6.49058C6.7543 6.79233 6.65763 7.16175 6.37538 7.34925L6.17538 7.48258C5.95138 7.63208 5.65938 7.63208 5.43538 7.48258L5.23538 7.34925C4.9493 7.165 4.84788 6.79491 5.00005 6.49058Z" fill="black"/>
<path d="M36.2439 7.31458C35.9629 7.06608 35.6413 6.86766 35.2933 6.72791C35.3166 6.66482 35.3301 6.59849 35.3333 6.53124C35.3339 4.69032 33.8422 3.19732 32.0012 3.19666C31.8943 3.19666 31.7876 3.20174 31.6812 3.21191C31.0042 3.28466 30.3724 3.58674 29.8906 4.06791C28.4592 5.46791 28.5639 6.62124 28.8146 7.46791C28.8975 7.75216 29.1578 7.94758 29.4539 7.94791H31.3419C30.6983 8.71841 30.4988 9.76691 30.8146 10.7199C30.8983 11.0033 31.1584 11.1979 31.4539 11.1979H36.5459C36.8413 11.198 37.1014 11.0037 37.1853 10.7206C37.2802 10.4163 37.33 10.0999 37.3333 9.78124C37.3328 8.84249 36.9375 7.94724 36.2439 7.31458ZM29.9999 6.61191C30.0181 5.98399 30.3208 5.39841 30.8226 5.02057C31.0858 4.75324 31.4326 4.58382 31.8053 4.54057C32.3683 4.48282 32.9292 4.66899 33.3459 5.05191C33.743 5.41649 33.9763 5.92574 33.9933 6.46457C33.8893 6.46457 33.7859 6.45057 33.6813 6.45924C33.4597 6.48374 33.2418 6.53499 33.0326 6.61191H29.9999ZM35.9999 9.86458H31.9999C32.0169 9.23599 32.3192 8.64924 32.8212 8.27058C33.0847 8.00349 33.4313 7.83416 33.8039 7.79058C34.3669 7.73316 34.9276 7.91924 35.3446 8.30191C35.7613 8.68099 35.9992 9.21791 35.9999 9.78124C35.9999 9.80858 35.9999 9.83658 35.9999 9.86458Z" fill="black"/>
<path d="M39.3647 32.884L39.0814 30.2326C39.0422 29.8667 38.714 29.6017 38.3481 29.6406L9.33341 32.738V30.5313C9.33341 30.1631 9.03491 29.8646 8.66674 29.8646H4.66674C4.29857 29.8646 4.00007 30.1631 4.00007 30.5313V32.8373L1.65207 32.5866C1.28924 32.5451 0.961322 32.8056 0.919822 33.1685C0.919406 33.1719 0.919072 33.1752 0.918739 33.1786L0.852072 33.786C0.825572 33.8046 0.800572 33.8253 0.777406 33.848C0.666406 33.9856 0.614656 34.1616 0.633406 34.3373L0.916739 36.9893C0.953239 37.3281 1.23932 37.5849 1.58007 37.5846C1.60416 37.5846 1.62816 37.5833 1.65207 37.5806L4.00007 37.3313V39.8646C4.00007 40.2328 4.29857 40.5313 4.66674 40.5313H8.66674C9.03491 40.5313 9.33341 40.2328 9.33341 39.8646V37.4293L38.3481 40.5273C38.714 40.5662 39.0422 40.3012 39.0814 39.9353L39.3647 37.284C39.4037 36.9181 39.1387 36.5898 38.7727 36.5506L25.0394 35.084L38.7727 33.6173C39.1387 33.5781 39.4037 33.2499 39.3647 32.884ZM5.33341 31.198H8.00007V32.8806L6.13674 33.0806C6.11341 33.076 6.09474 33.0626 6.07007 33.06L5.33341 32.98V31.198ZM8.00007 39.198H5.33341V37.198V37.188L8.00007 36.9026V39.198ZM37.9687 37.8046L37.8274 39.1313L12.4814 36.4246L18.7607 35.754L37.9687 37.8046ZM18.7607 34.4133H18.7374C18.6397 34.4034 18.541 34.4157 18.4487 34.4493L2.17274 36.184L2.03141 34.858L37.8274 31.0366L37.9687 32.3626L18.7607 34.4133Z" fill="black"/>
</svg>
