<svg width="30" height="30" viewBox="0 0 30 30" fill="none" xmlns="http://www.w3.org/2000/svg">
<g clip-path="url(#clip0)">
<path d="M15.005 7.2975C10.7512 7.2975 7.3075 10.745 7.3075 14.995C7.3075 19.2487 10.755 22.6925 15.005 22.6925C19.2587 22.6925 22.7025 19.245 22.7025 14.995C22.7025 10.7412 19.255 7.2975 15.005 7.2975ZM15.005 19.9912C12.2437 19.9912 10.0087 17.755 10.0087 14.995C10.0087 12.235 12.245 9.99875 15.005 9.99875C17.765 9.99875 20.0012 12.235 20.0012 14.995C20.0025 17.755 17.7662 19.9912 15.005 19.9912Z" fill="white"/>
<path d="M21.1849 0.0952023C18.4249 -0.0335478 11.5887 -0.0272978 8.82617 0.0952023C6.39867 0.208952 4.25742 0.795202 2.53117 2.52145C-0.353832 5.40645 0.0149179 9.29396 0.0149179 14.9952C0.0149179 20.8302 -0.310082 24.6277 2.53117 27.469C5.42742 30.364 9.37117 29.9852 15.0049 29.9852C20.7849 29.9852 22.7799 29.989 24.8237 29.1977C27.6024 28.119 29.6999 25.6352 29.9049 21.174C30.0349 18.4127 30.0274 11.5777 29.9049 8.81521C29.6574 3.54895 26.8312 0.355202 21.1849 0.0952023ZM25.5537 25.5602C23.6624 27.4515 21.0387 27.2827 14.9687 27.2827C8.71867 27.2827 6.21242 27.3752 4.38367 25.5415C2.27742 23.4452 2.65867 20.079 2.65867 14.9752C2.65867 8.06896 1.94992 3.0952 8.88117 2.7402C10.4737 2.68395 10.9424 2.6652 14.9512 2.6652L15.0074 2.7027C21.6687 2.7027 26.8949 2.0052 27.2087 8.93521C27.2799 10.5165 27.2962 10.9915 27.2962 14.994C27.2949 21.1715 27.4124 23.6927 25.5537 25.5602Z" fill="white"/>
<path d="M23.0075 8.79251C24.0009 8.79251 24.8062 7.98718 24.8062 6.99375C24.8062 6.00033 24.0009 5.195 23.0075 5.195C22.0141 5.195 21.2087 6.00033 21.2087 6.99375C21.2087 7.98718 22.0141 8.79251 23.0075 8.79251Z" fill="white"/>
</g>
<defs>
<clipPath id="clip0">
<rect width="30" height="30" fill="white"/>
</clipPath>
</defs>
</svg>
