<svg width="24" height="24" viewBox="0 0 24 24" fill="none" xmlns="http://www.w3.org/2000/svg">
<path fill-rule="evenodd" clip-rule="evenodd" d="M12 2.5C10.8239 2.49964 9.67866 2.87629 8.73236 3.57467C7.78607 4.27305 7.08856 5.25638 6.74221 6.38032C6.39586 7.50427 6.41892 8.70964 6.808 9.81952C7.19708 10.9294 7.93169 11.8853 8.904 12.547C7.2165 13.1659 5.75283 14.2757 4.70136 15.7335C3.64989 17.1913 3.05875 18.9304 3.004 20.727C2.99803 20.9259 3.07133 21.119 3.20776 21.2639C3.34419 21.4088 3.53259 21.4935 3.7315 21.4995C3.93041 21.5055 4.12355 21.4322 4.26842 21.2957C4.41329 21.1593 4.49803 20.9709 4.504 20.772C4.56355 18.8235 5.37946 16.9747 6.77883 15.6174C8.17819 14.2602 10.051 13.5011 12.0005 13.5011C13.95 13.5011 15.8228 14.2602 17.2222 15.6174C18.6215 16.9747 19.4375 18.8235 19.497 20.772C19.4978 20.8719 19.5185 20.9706 19.5579 21.0623C19.5973 21.1541 19.6546 21.237 19.7265 21.3063C19.7984 21.3756 19.8835 21.4299 19.9766 21.4659C20.0698 21.5019 20.1692 21.5189 20.269 21.516C20.3688 21.513 20.467 21.4902 20.5579 21.4488C20.6488 21.4074 20.7305 21.3483 20.7982 21.2749C20.8659 21.2015 20.9183 21.1153 20.9523 21.0214C20.9862 20.9275 21.0011 20.8277 20.996 20.728C20.9414 18.9312 20.3504 17.1919 19.2989 15.7339C18.2474 14.2759 16.7837 13.166 15.096 12.547C16.0683 11.8853 16.8029 10.9294 17.192 9.81952C17.5811 8.70964 17.6041 7.50427 17.2578 6.38032C16.9114 5.25638 16.2139 4.27305 15.2676 3.57467C14.3213 2.87629 13.1761 2.49964 12 2.5ZM8 8C8 6.93913 8.42143 5.92172 9.17157 5.17157C9.92172 4.42143 10.9391 4 12 4C13.0609 4 14.0783 4.42143 14.8284 5.17157C15.5786 5.92172 16 6.93913 16 8C16 9.06087 15.5786 10.0783 14.8284 10.8284C14.0783 11.5786 13.0609 12 12 12C10.9391 12 9.92172 11.5786 9.17157 10.8284C8.42143 10.0783 8 9.06087 8 8Z" fill="black"/>
</svg>
