<svg width="82" height="82" viewBox="0 0 82 82" fill="none" xmlns="http://www.w3.org/2000/svg">
<path d="M40.9999 0C18.3563 0 0 18.3563 0 40.9999C0 63.6435 18.3563 81.9998 40.9999 81.9998C63.6435 81.9998 81.9998 63.6435 81.9998 40.9999C81.9758 18.3664 63.6336 0.024195 40.9999 0ZM40.9999 76.1428C21.591 76.1428 5.85708 60.4088 5.85708 40.9999C5.85708 21.591 21.591 5.85708 40.9999 5.85708C60.4088 5.85708 76.1428 21.591 76.1428 40.9999C76.1218 60.4002 60.4002 76.1218 40.9999 76.1428Z" fill="#F6F5F1"/>
<path d="M40.9999 14.6428C39.3825 14.6428 38.0713 15.954 38.0713 17.5714V38.0715H17.5714C15.954 38.0715 14.6428 39.3827 14.6428 41.0001C14.6428 42.6176 15.954 43.9286 17.5714 43.9286H40.9999C42.6174 43.9286 43.9286 42.6174 43.9286 40.9999V17.5714C43.9286 15.954 42.6174 14.6428 40.9999 14.6428Z" fill="#F6F5F1"/>
</svg>
